<svg id="b8b151f7-ef55-404a-9435-14c33ab37c0c" data-name="Layer 1" xmlns="http://www.w3.org/2000/svg" viewBox="0 0 939 179.12"><title>feature_text</title><path d="M39.36,37.24H98.49V52.85H58.93v14H94.65V82.37l-35.72.11V96.59H99.56v15.62H39.36Z" transform="translate(-39.36 -36.07)" style="fill:#fff"/><path d="M106.41,37.24h22.77l14,21.28,14.12-21.28h23.1L155.7,73.07l26.85,39.14H159.13L143.19,89l-15.61,23.21H104.7L131.32,74Z" transform="translate(-39.36 -36.07)" style="fill:#fff"/><path d="M245.64,44.14q7.91,6.9,7.91,19.41,0,13.26-7.91,20.58t-22.25,7.33H210v20.75H190.46v-75h32.93Q237.73,37.24,245.64,44.14Zm-14,28.71c2.18-2,3.26-4.88,3.26-8.66s-1.08-6.43-3.26-8.39-5.26-2.95-9.25-2.95H210v23h12.4Q228.41,75.85,231.68,72.85Z" transform="translate(-39.36 -36.07)" style="fill:#fff"/><path d="M263.17,37.24h19.57V95.52H314.5v16.69H263.17Z" transform="translate(-39.36 -36.07)" style="fill:#fff"/><path d="M379.79,41.09a37.29,37.29,0,0,1,19.83,33.47,37.94,37.94,0,0,1-19.83,33.9,44.46,44.46,0,0,1-41.39.06,37.73,37.73,0,0,1-14.54-14,38.35,38.35,0,0,1-5.29-20A37.29,37.29,0,0,1,338.4,41.09a45.17,45.17,0,0,1,41.39,0ZM349,55.53a20.74,20.74,0,0,0-7.54,8A23.86,23.86,0,0,0,341.5,86,21.8,21.8,0,0,0,349,94a19,19,0,0,0,10.27,2.94A18.72,18.72,0,0,0,369.52,94a20.73,20.73,0,0,0,7.33-8,24.93,24.93,0,0,0,0-22.45,20.31,20.31,0,0,0-7.33-8,18.93,18.93,0,0,0-10.21-2.89A19.48,19.48,0,0,0,349,55.53Z" transform="translate(-39.36 -36.07)" style="fill:#fff"/><path d="M454.37,112.21l-10.9-20.75H428.92v20.75H409.35v-75H443q14.86,0,23,6.9t8.18,19.41a29.59,29.59,0,0,1-3.42,14.6,23.62,23.62,0,0,1-9.94,9.57l15.61,24.49ZM428.92,75.85h14.23q6,0,9.25-3t3.26-8.66c0-3.64-1.09-6.43-3.26-8.39s-5.26-2.95-9.25-2.95H428.92Z" transform="translate(-39.36 -36.07)" style="fill:#fff"/><path d="M486.78,37.24h59.13V52.85H506.34v14h35.72V82.37l-35.72.11V96.59H547v15.62h-60.2Z" transform="translate(-39.36 -36.07)" style="fill:#fff"/><path d="M39.36,138.83H60.64l21.71,43.85L104,138.83h21.28v75H107.91l-.11-47.48-19.14,40H76l-19.25-40v47.48H39.36Z" transform="translate(-39.36 -36.07)" style="fill:#fff"/><path d="M196.18,142.68A37.32,37.32,0,0,1,216,176.15a38,38,0,0,1-19.84,33.9,44.44,44.44,0,0,1-41.38.06,37.69,37.69,0,0,1-14.55-14A38.35,38.35,0,0,1,135,176.15a37.27,37.27,0,0,1,19.84-33.47,45.15,45.15,0,0,1,41.38,0Zm-30.8,14.44a20.82,20.82,0,0,0-7.54,8,23.83,23.83,0,0,0,.06,22.45,21.72,21.72,0,0,0,7.54,8,19.3,19.3,0,0,0,20.48,0,20.63,20.63,0,0,0,7.32-8,24.93,24.93,0,0,0,0-22.45,20.21,20.21,0,0,0-7.32-8,19,19,0,0,0-10.22-2.89A19.48,19.48,0,0,0,165.38,157.12Z" transform="translate(-39.36 -36.07)" style="fill:#fff"/><path d="M248.2,194.23a14.16,14.16,0,0,0,10.59,4.27A13.23,13.23,0,0,0,269,194.28q3.9-4.23,3.91-11.39V138.83h19.57v44.06A34.3,34.3,0,0,1,288.36,200a28,28,0,0,1-11.76,11.28,38.46,38.46,0,0,1-17.92,4,39,39,0,0,1-18-4,28.39,28.39,0,0,1-12-11.28,33.52,33.52,0,0,1-4.23-17.06V138.83H244v44.06Q244,190,248.2,194.23Z" transform="translate(-39.36 -36.07)" style="fill:#fff"/><path d="M357.06,138.83h18.18v75H358.13l-34-44.8v44.8H305.84v-75h17.22L357.17,184Z" transform="translate(-39.36 -36.07)" style="fill:#fff"/><path d="M383.37,138.83h64.27V155H425.18v58.81H405.61V155H383.37Z" transform="translate(-39.36 -36.07)" style="fill:#fff"/><path d="M479.29,138.83h59.14v15.61H498.86v14h35.72V184l-35.72.11v14.11H539.5v15.61H479.29Z" transform="translate(-39.36 -36.07)" style="fill:#fff"/><path d="M544,138.83h21.06l18.72,54.22,18.82-54.22h20.1l-29.3,75H573.07Z" transform="translate(-39.36 -36.07)" style="fill:#fff"/><path d="M629.75,138.83h59.14v15.61H649.32v14H685V184l-35.72.11v14.11H690v15.61H629.75Z" transform="translate(-39.36 -36.07)" style="fill:#fff"/><path d="M747,213.79,736,193.05H721.5v20.74H701.93v-75h33.69q14.85,0,23,6.9t8.18,19.41a29.59,29.59,0,0,1-3.42,14.6,23.64,23.64,0,0,1-9.95,9.57l15.62,24.48ZM721.5,177.44h14.22q6,0,9.25-3c2.18-2,3.26-4.88,3.26-8.66s-1.08-6.43-3.26-8.39-5.26-2.95-9.25-2.95H721.5Z" transform="translate(-39.36 -36.07)" style="fill:#fff"/><path d="M779.35,138.83h59.14v15.61H798.92v14h35.72V184l-35.72.11v14.11h40.64v15.61H779.35Z" transform="translate(-39.36 -36.07)" style="fill:#fff"/><path d="M890.41,155.62A37.56,37.56,0,0,0,879,153.38a10.59,10.59,0,0,0-5.73,1.33,4.37,4.37,0,0,0-2.08,3.91,5.3,5.3,0,0,0,1.82,4.11,13.88,13.88,0,0,0,4.49,2.68c1.78.67,4.42,1.55,7.91,2.62a101.33,101.33,0,0,1,12.89,4.49,22.47,22.47,0,0,1,8.71,6.89q3.65,4.67,3.64,12.14a20.73,20.73,0,0,1-4,12.78,24,24,0,0,1-10.85,8A42.24,42.24,0,0,1,880.51,215,55.58,55.58,0,0,1,862,211.71a50.63,50.63,0,0,1-16-8.93l7.6-15.29A47.15,47.15,0,0,0,867,195.72a36.54,36.54,0,0,0,13.74,3.21,12.77,12.77,0,0,0,6.9-1.6,5.25,5.25,0,0,0,2.51-4.71,5.6,5.6,0,0,0-1.87-4.28,13.83,13.83,0,0,0-4.71-2.72c-1.89-.68-4.54-1.48-8-2.41a97.68,97.68,0,0,1-12.72-4.33,22.52,22.52,0,0,1-8.61-6.63q-3.59-4.44-3.58-11.82a20.66,20.66,0,0,1,3.69-12.19,23.49,23.49,0,0,1,10.48-8.07,40.65,40.65,0,0,1,15.77-2.84,57.33,57.33,0,0,1,16,2.3,53.14,53.14,0,0,1,13.9,6.15l-7.38,15.62A65.55,65.55,0,0,0,890.41,155.62Z" transform="translate(-39.36 -36.07)" style="fill:#fff"/><path d="M914.09,138.83h64.27V155H955.9v58.81H936.33V155H914.09Z" transform="translate(-39.36 -36.07)" style="fill:#fff"/></svg>