<svg id="bbd1c47b-c51e-40a7-a95b-76f72ae2854a" data-name="Layer 1" xmlns="http://www.w3.org/2000/svg" viewBox="0 0 60 60"><defs><style>.aca7517e-e90a-4647-91a3-173c6695902d,.b9c22e5c-042b-449d-9caa-f113afef5607,.bc05f909-4ffc-42c1-a78e-84d43ad6d8b3{fill:none;}.a18f7d12-da0a-4b12-bec8-945ce41231da,.b9c22e5c-042b-449d-9caa-f113afef5607,.bb7460a8-e39c-4f54-b9bf-53c974cb801b{stroke:#415260;}.a18f7d12-da0a-4b12-bec8-945ce41231da,.a42ad58c-e9b6-45d7-8ef5-35de2d294964,.b9c22e5c-042b-449d-9caa-f113afef5607,.bb7460a8-e39c-4f54-b9bf-53c974cb801b{stroke-miterlimit:10;}.bb7460a8-e39c-4f54-b9bf-53c974cb801b{fill:#fff;}.a42ad58c-e9b6-45d7-8ef5-35de2d294964,.bb7460a8-e39c-4f54-b9bf-53c974cb801b{stroke-width:0.5px;}.b77c1ac1-53c0-426b-9d77-ebafebda84b1{font-size:5.83px;}.b77c1ac1-53c0-426b-9d77-ebafebda84b1,.fc72f2eb-6e71-44a6-b5a3-2f2b3bfb8c69{fill:#415260;font-family:Helvetica-Bold, Helvetica;font-weight:700;}.fc72f2eb-6e71-44a6-b5a3-2f2b3bfb8c69{font-size:9.58px;}.a18f7d12-da0a-4b12-bec8-945ce41231da,.a42ad58c-e9b6-45d7-8ef5-35de2d294964{fill:#e7773f;}.a42ad58c-e9b6-45d7-8ef5-35de2d294964,.aca7517e-e90a-4647-91a3-173c6695902d,.bc05f909-4ffc-42c1-a78e-84d43ad6d8b3{stroke:#f9d2be;}.a56d7528-1451-4811-9162-9ffd90a4c994{fill:#f9d2be;}.aca7517e-e90a-4647-91a3-173c6695902d,.bc05f909-4ffc-42c1-a78e-84d43ad6d8b3{stroke-linecap:round;stroke-linejoin:round;stroke-width:0.3px;}.bc05f909-4ffc-42c1-a78e-84d43ad6d8b3{stroke-dasharray:0.98 0.98;}</style></defs><title>icons</title><rect class="b9c22e5c-042b-449d-9caa-f113afef5607" x="12.46" y="23.19" width="32.08" height="18.81" rx="2.3"/><rect class="bb7460a8-e39c-4f54-b9bf-53c974cb801b" x="21.39" y="17.97" width="16.04" height="10.1" transform="translate(-7.75 26.81) rotate(-43.88)"/><text class="b77c1ac1-53c0-426b-9d77-ebafebda84b1" transform="matrix(0.7, -0.71, 0.71, 0.7, 27.57, 25.38)">$</text><rect class="bb7460a8-e39c-4f54-b9bf-53c974cb801b" x="26.75" y="18.27" width="16.04" height="10.1" transform="translate(-6.46 30.61) rotate(-43.88)"/><text class="fc72f2eb-6e71-44a6-b5a3-2f2b3bfb8c69" transform="matrix(0.7, -0.71, 0.71, 0.7, 35.36, 27.77)">$</text><rect class="a18f7d12-da0a-4b12-bec8-945ce41231da" x="12.46" y="25.15" width="32.08" height="16.85" rx="2.35"/><path class="a42ad58c-e9b6-45d7-8ef5-35de2d294964" d="M44,32H35.68a1.45,1.45,0,0,0-1.45,1.46V34a1.45,1.45,0,0,0,1.45,1.45H44"/><circle class="a56d7528-1451-4811-9162-9ffd90a4c994" cx="35.95" cy="33.74" r="1.15"/><path class="aca7517e-e90a-4647-91a3-173c6695902d" d="M41.75,40h0"/><path class="bc05f909-4ffc-42c1-a78e-84d43ad6d8b3" d="M40.77,40h-25"/><path class="aca7517e-e90a-4647-91a3-173c6695902d" d="M15.25,40h0"/><path class="bc05f909-4ffc-42c1-a78e-84d43ad6d8b3" d="M16.23,40h25"/><path class="aca7517e-e90a-4647-91a3-173c6695902d" d="M41.75,26.87h0"/><path class="bc05f909-4ffc-42c1-a78e-84d43ad6d8b3" d="M40.77,26.87h-25"/><path class="aca7517e-e90a-4647-91a3-173c6695902d" d="M15.25,26.87h0"/><path class="bc05f909-4ffc-42c1-a78e-84d43ad6d8b3" d="M16.23,26.87h25"/></svg>