<svg id="b053caca-6521-4096-93d7-bb4617cc7a43" data-name="Layer 1" xmlns="http://www.w3.org/2000/svg" viewBox="0 0 60 60"><defs><style>.fbf0fa84-1d5c-48a1-9f43-b8bf4aa5dfaf{fill:#e7773f;}.b3325eee-fc2e-433d-8af8-e0807baaa10b{fill:#415260;}.ff59f30d-0ef7-4774-a355-1dca89120280{fill:#839099;}.b3cb9379-0387-4c2d-9005-1b301bfafe4a{fill:#b9babc;}.ff3802e0-f2fd-4b16-9a31-0c1c5e0b98b7{fill:#17293a;}</style></defs><title>icons</title><path class="fbf0fa84-1d5c-48a1-9f43-b8bf4aa5dfaf" d="M40.42,39.8l-15.56-.14V35.84a8,8,0,0,1,8-8h0a7.76,7.76,0,0,1,7.76,7.75Z"/><path class="b3325eee-fc2e-433d-8af8-e0807baaa10b" d="M40.8,40.2l-16.34-.15V35.84a8.41,8.41,0,0,1,8.39-8.39A8.16,8.16,0,0,1,41,35.6Zm-15.55-.93,14.8.13.16-3.81a7.36,7.36,0,0,0-7.36-7.35,7.61,7.61,0,0,0-7.6,7.6Z"/><ellipse class="fbf0fa84-1d5c-48a1-9f43-b8bf4aa5dfaf" cx="32.7" cy="21.72" rx="6.34" ry="5.47" transform="translate(10.06 53.79) rotate(-88.38)"/><path class="b3325eee-fc2e-433d-8af8-e0807baaa10b" d="M32.65,28.45h-.14a5.44,5.44,0,0,1-4.11-2.11,7.48,7.48,0,0,1,.27-9.48A5.36,5.36,0,0,1,37,17.1a7.28,7.28,0,0,1,1.56,4.78C38.45,25.54,35.82,28.45,32.65,28.45Zm.09-12.68a4.71,4.71,0,0,0-3.49,1.62,6.51,6.51,0,0,0-1.63,4.19A6.45,6.45,0,0,0,29,25.84a4.72,4.72,0,0,0,3.52,1.83c2.79.09,5.15-2.53,5.24-5.81a6.48,6.48,0,0,0-1.38-4.27,4.74,4.74,0,0,0-3.52-1.82Z"/><path class="fbf0fa84-1d5c-48a1-9f43-b8bf4aa5dfaf" d="M40.42,39.8l.08,1.72s-1,4.37-8,3.72V42.61h2.89a2.41,2.41,0,0,0,1.69-2.4V36.27"/><path class="b3325eee-fc2e-433d-8af8-e0807baaa10b" d="M33.9,45.7c-.44,0-.9,0-1.4-.07l-.35,0V42.22h3.23a2,2,0,0,0,1.35-2V36.27h.78v3.94a2.79,2.79,0,0,1-2,2.78l-.1,0h-2.5v1.87c5.92.42,7-2.94,7.17-3.4L40,39.82l.79,0,.07,1.77v.05S39.9,45.7,33.9,45.7Z"/><path class="ff59f30d-0ef7-4774-a355-1dca89120280" d="M16.48,36.32H25a.66.66,0,0,1,.63.44l2.94,8.33a.09.09,0,0,1-.08.12H17.62a.68.68,0,0,1-.65-.5L15.19,38A1.33,1.33,0,0,1,16.48,36.32Z"/><path class="b3325eee-fc2e-433d-8af8-e0807baaa10b" d="M28.49,45.6H17.62a1.06,1.06,0,0,1-1-.79l-1.78-6.72a1.71,1.71,0,0,1,.3-1.5,1.74,1.74,0,0,1,1.37-.67H25a1.07,1.07,0,0,1,1,.71L28.94,45a.48.48,0,0,1-.45.64Zm-.29-.37ZM16.48,36.71a.94.94,0,0,0-.75.36,1,1,0,0,0-.16.81l1.78,6.73a.28.28,0,0,0,.27.21H28.06l-2.8-7.93a.27.27,0,0,0-.26-.18Z"/><path class="b3cb9379-0387-4c2d-9005-1b301bfafe4a" d="M26.91,36.66l3,8.64H28.61l-3.44-9,1-.14A.7.7,0,0,1,26.91,36.66Z"/><path class="b3325eee-fc2e-433d-8af8-e0807baaa10b" d="M30.42,45.69H28.34L24.62,36l1.47-.2a1.11,1.11,0,0,1,1.2.74Zm-1.54-.78h.44l-2.78-8.13a.31.31,0,0,0-.35-.21l-.48.07Z"/><path class="ff59f30d-0ef7-4774-a355-1dca89120280" d="M34.41,45.3l-17.27-.38s-.12,1.89,1.39,1.89H33.91A1.71,1.71,0,0,0,34.41,45.3Z"/><path class="b3325eee-fc2e-433d-8af8-e0807baaa10b" d="M34.07,47.21H18.53a1.64,1.64,0,0,1-1.22-.5,2.69,2.69,0,0,1-.56-1.81l0-.38,17.92.39.08.27a2.08,2.08,0,0,1-.6,1.91ZM17.55,45.32a1.65,1.65,0,0,0,.33.85.84.84,0,0,0,.65.25h15.2a1.55,1.55,0,0,0,.34-.74Z"/><path class="fbf0fa84-1d5c-48a1-9f43-b8bf4aa5dfaf" d="M32.95,42.61h0a0,0,0,0,1,0,0V45a0,0,0,0,1,0,0H30.54a0,0,0,0,1,0,0v0A2.41,2.41,0,0,1,32.95,42.61Z"/><path class="b3325eee-fc2e-433d-8af8-e0807baaa10b" d="M33.34,45.41H30.15V45a2.8,2.8,0,0,1,2.8-2.8h.39ZM31,44.63h1.58V43A2,2,0,0,0,31,44.63Z"/><rect class="ff59f30d-0ef7-4774-a355-1dca89120280" x="25.81" y="20.57" width="1.54" height="3.08"/><path class="b3325eee-fc2e-433d-8af8-e0807baaa10b" d="M27.74,24H25.42V20.18h2.32Zm-1.54-.79H27V21H26.2Z"/><rect class="ff59f30d-0ef7-4774-a355-1dca89120280" x="38.12" y="20.57" width="1.54" height="3.08"/><path class="b3325eee-fc2e-433d-8af8-e0807baaa10b" d="M40.05,24H37.72V20.18h2.33Zm-1.54-.79h.75V21h-.75Z"/><path class="b3325eee-fc2e-433d-8af8-e0807baaa10b" d="M39.28,20.38h-.79a5.78,5.78,0,0,0-6-5.57,5.78,5.78,0,0,0-5.95,5.57H25.8A6.56,6.56,0,0,1,32.54,14,6.56,6.56,0,0,1,39.28,20.38Z"/><path class="b3325eee-fc2e-433d-8af8-e0807baaa10b" d="M32.73,26.35v-.79c3.34,0,5.76-2.18,5.76-5.18h.79C39.28,23.84,36.53,26.35,32.73,26.35Z"/><ellipse class="ff59f30d-0ef7-4774-a355-1dca89120280" cx="32.54" cy="26.15" rx="1.35" ry="0.58"/><path class="b3325eee-fc2e-433d-8af8-e0807baaa10b" d="M32.54,27.12c-1,0-1.74-.4-1.74-1s.72-1,1.74-1,1.74.4,1.74,1S33.56,27.12,32.54,27.12Zm-.89-1a2.29,2.29,0,0,0,1.78,0,2.18,2.18,0,0,0-1.78,0Z"/><g id="f2475625-c426-4913-9203-99fe53fae99b" data-name="GXRhw7.tif"><path class="ff3802e0-f2fd-4b16-9a31-0c1c5e0b98b7" d="M21.42,42.27h-.09c-.11,0-.17-.08-.24-.15a1.31,1.31,0,0,1-.24-.37,1.51,1.51,0,0,1-.06-.36.44.44,0,0,1,.54-.54l.09,0a.19.19,0,0,0,.16,0l.13-.06a.46.46,0,0,1,.41,0s.05,0,.07.06,0,0,0,.08a.42.42,0,0,0-.11.18.4.4,0,0,0,.19.46s.05,0,.06,0a.32.32,0,0,1,0,.17,1.11,1.11,0,0,1-.14.29.24.24,0,0,1-.16.09h-.07l-.15,0a.3.3,0,0,0-.21,0A1,1,0,0,1,21.42,42.27Z"/><path class="ff3802e0-f2fd-4b16-9a31-0c1c5e0b98b7" d="M21.76,40.35s0,0,0,0v0a.42.42,0,0,1-.17.33l-.1,0c-.05,0-.06,0-.06,0A.41.41,0,0,1,21.76,40.35Z"/></g></svg>