<svg id="ab171f57-52f5-4194-9bce-ad13ce21f2f6" data-name="Layer 1" xmlns="http://www.w3.org/2000/svg" viewBox="0 0 60 60"><defs><style>.f9cfdfad-e25f-4883-9684-1458293ed046{fill:#5ea57b;}.bceada48-a8f0-490d-b92c-6d3d266e2700{fill:#fec9a3;}.b921aa3b-abf4-4932-9a27-aba0a7bf3417{fill:#0a0f0e;}.a07e127c-9c65-4d9e-af13-d7c1e0aa9f33{fill:#d5d9a7;}</style></defs><title>icons</title><path class="f9cfdfad-e25f-4883-9684-1458293ed046" d="M24.46,26.36l.91.1h0l.12,3.27h0l-.92-.09a.88.88,0,0,1-.77-.82L23.73,27A.64.64,0,0,1,24.46,26.36Z"/><path class="f9cfdfad-e25f-4883-9684-1458293ed046" d="M32.32,23.52l-1.67-.18a1.39,1.39,0,0,0-1.6,1.46l.26,7.38,5,.52L34,25.33A2,2,0,0,0,32.32,23.52Z"/><path class="bceada48-a8f0-490d-b92c-6d3d266e2700" d="M33.42,19.55l-3.26.07a1.75,1.75,0,0,0,0,.4l.06,1.64a2,2,0,0,0,1.72,1.81A1.4,1.4,0,0,0,33.51,22l-.06-1.64A5.67,5.67,0,0,0,33.42,19.55Z"/><path class="b921aa3b-abf4-4932-9a27-aba0a7bf3417" d="M30.11,19.61l.06,1.64,1.6-1.46,1.25.13a1.06,1.06,0,0,0,1.21-1.1l-2.92-.31a1,1,0,0,0-1.2,1.1h0"/><path class="b921aa3b-abf4-4932-9a27-aba0a7bf3417" d="M34.3,32.7l-5-.52.14,4.09-3.69,1.24.89,1.73L30.56,38a1.38,1.38,0,0,0,1-1.4l-.07-1.82a.66.66,0,0,1,.76-.69,1,1,0,0,1,.7.46l3.74,6.53,1.63-.64Z"/><path class="f9cfdfad-e25f-4883-9684-1458293ed046" d="M25.66,41.13l-1.53-3,1.63-.65,1.58,3.07a.79.79,0,0,1,0,.73h0a.7.7,0,0,1-.73.38l-.22,0A1,1,0,0,1,25.66,41.13Z"/><path class="f9cfdfad-e25f-4883-9684-1458293ed046" d="M40,41.87l-2.45,1-.89-1.73,2.45-1a1,1,0,0,1,1.26.54h0A.81.81,0,0,1,40,41.87Z"/><path class="bceada48-a8f0-490d-b92c-6d3d266e2700" d="M39.78,26.87a1.1,1.1,0,0,0-1.45-.36l-.11.08-2,1.83-2.16-2.68L34.17,29l.19.28a2.38,2.38,0,0,0,3.06.92,1.5,1.5,0,0,0,.33-.23l2-1.81A1,1,0,0,0,39.78,26.87Z"/><path class="b921aa3b-abf4-4932-9a27-aba0a7bf3417" d="M30.41,22.91l-3.1-.33,0,.82,3.1.33a1.28,1.28,0,0,1,1.13,1.18,1,1,0,0,1-.1.46l-2.43,5-1,0,0,.82,1.18-.05a.69.69,0,0,0,.61-.38l2.41-5a2.19,2.19,0,0,0-1.82-2.9Z"/><path class="b921aa3b-abf4-4932-9a27-aba0a7bf3417" d="M25.5,30.14a1.48,1.48,0,0,0,1.29,1.36l1.25.13a1,1,0,0,0,1.21-1.09l0-.41-3.74-.4Z"/><path class="a07e127c-9c65-4d9e-af13-d7c1e0aa9f33" d="M29,24A1.52,1.52,0,0,0,27.74,23l-1.25-.13a1,1,0,0,0-1.2,1.1l.2,5.73,3.74.4L29,24.39Z"/><polygon class="b921aa3b-abf4-4932-9a27-aba0a7bf3417" points="43.37 43.36 42.56 43.46 37.78 25.41 38.59 25.31 43.37 43.36"/><path class="f9cfdfad-e25f-4883-9684-1458293ed046" d="M27,19.28a1.57,1.57,0,0,0-1.81,1.65,2.2,2.2,0,0,0,1.94,2,1.57,1.57,0,0,0,1.8-1.65A2.21,2.21,0,0,0,27,19.28Zm.08,2.46a.74.74,0,0,1-.64-.68.53.53,0,0,1,.6-.55.75.75,0,0,1,.65.68A.53.53,0,0,1,27.07,21.74Z"/><path class="bceada48-a8f0-490d-b92c-6d3d266e2700" d="M31.88,25.34l-2.36,1.19,2.9,2.3a1.09,1.09,0,0,1,.34,1.45l0,0h0a1,1,0,0,1-1.4.09l-3.57-2.8A1.76,1.76,0,0,1,27,26.27h0a1.29,1.29,0,0,1,.64-1.2l3-1.56a1.14,1.14,0,0,1,1.42.39h0a1,1,0,0,1-.16,1.41Z"/></svg>